<svg xmlns="http://www.w3.org/2000/svg" xmlns:svg="http://www.w3.org/2000/svg" id="schedule" width="661.2" height="665.4" x="0" y="0" version="1.1" viewBox="0 0 661.2 665.4" xml:space="preserve"><style id="style2" type="text/css">.st0{fill:#fff}.st1{fill:#c1272d}.st2{fill:#991d26}.st3{fill:#ccc}.st4{fill:#e6e6e6}.st5{fill:#f7931e}.st6{fill:#f2f2f2}.st7{stroke:#999;stroke-width:17.9763}.st7,.st8,.st9{fill:none;stroke-linecap:round;stroke-miterlimit:10}.st8{stroke:#333;stroke-width:8.9882}.st9{stroke:#c1272d;stroke-width:5.9921}.st10{fill:#245f7f}</style><g id="g72" transform="translate(-149.4,-147.3)"><path id="path4" d="M 601.2,699.8 H 205 c -30.7,0 -55.6,-24.9 -55.6,-55.6 V 248 c 0,-30.7 24.9,-55.6 55.6,-55.6 h 396.2 c 30.7,0 55.6,24.9 55.6,55.6 v 396.2 c 0,30.7 -24.9,55.6 -55.6,55.6 z" class="st0" style="fill:#dfdfdf;fill-opacity:1"/><path id="path6" d="M 601.2,192.4 H 205 c -30.7,0 -55.6,24.9 -55.6,55.6 v 88.5 H 656.8 V 248 c 0,-30.7 -24.9,-55.6 -55.6,-55.6 z" class="st1" style="fill:#d62128;fill-opacity:1"/><circle id="circle8" cx="253.3" cy="264.5" r="36.7" class="st2"/><circle id="circle10" cx="551.6" cy="264.5" r="36.7" class="st2"/><path id="path12" d="m 253.3,275.7 v 0 c -11.8,0 -21.3,-9.6 -21.3,-21.3 v -85.8 c 0,-11.8 9.6,-21.3 21.3,-21.3 v 0 c 11.8,0 21.3,9.6 21.3,21.3 v 85.8 c 0,11.8 -9.5,21.3 -21.3,21.3 z" class="st3"/><path id="path14" d="m 551.6,275.7 v 0 c -11.8,0 -21.3,-9.6 -21.3,-21.3 v -85.8 c 0,-11.8 9.6,-21.3 21.3,-21.3 v 0 c 11.8,0 21.3,9.6 21.3,21.3 v 85.8 c 0.1,11.8 -9.5,21.3 -21.3,21.3 z" class="st3"/><rect id="rect16" width="75.2" height="75.2" x="215.7" y="370.9" class="st4" style="fill:#fff;fill-opacity:1"/><rect id="rect18" width="75.2" height="75.2" x="313" y="370.9" class="st4" style="fill:#fff;fill-opacity:1"/><rect id="rect20" width="75.2" height="75.2" x="410.2" y="370.9" class="st4" style="fill:#fff;fill-opacity:1"/><rect id="rect22" width="75.2" height="75.2" x="507.5" y="370.9" class="st4" style="fill:#fff;fill-opacity:1"/><rect id="rect24" width="75.2" height="75.2" x="215.7" y="465" class="st4" style="fill:#fff;fill-opacity:1"/><rect id="rect26" width="75.2" height="75.2" x="313" y="465" class="st1" style="fill:#27c12b;fill-opacity:1"/><rect id="rect28" width="75.2" height="75.2" x="410.2" y="465" class="st4" style="fill:#fff;fill-opacity:1"/><rect id="rect30" width="75.2" height="75.2" x="507.5" y="465" class="st4"/><rect id="rect32" width="75.2" height="75.2" x="215.7" y="559.1" class="st4" style="fill:#fff;fill-opacity:1"/><rect id="rect34" width="75.2" height="75.2" x="313" y="559.1" class="st4" style="fill:#fff;fill-opacity:1"/><rect id="rect36" width="75.2" height="75.2" x="410.2" y="559.1" class="st4" style="fill:#fff;fill-opacity:1"/><rect id="rect38" width="75.2" height="75.2" x="507.5" y="559.1" class="st4"/><g id="g70"><circle id="circle40" cx="621.9" cy="624" r="188.7" class="st5"/><circle id="circle42" cx="621.9" cy="624" r="148" class="st0"/><path id="path44" d="m 486.6,636.8 c 0,-81.7 66.3,-148 148,-148 37.6,0 72,14.1 98.1,37.2 -27.1,-30.6 -66.7,-49.9 -110.8,-49.9 -81.7,0 -148,66.3 -148,148 0,44.1 19.3,83.7 49.9,110.8 -23.1,-26.2 -37.2,-60.5 -37.2,-98.1 z" class="st6"/><polyline id="polyline46" points="621.9 530.4 621.9 624 559 624" class="st7"/><g id="g64"><line id="line48" x1="621.9" x2="621.9" y1="508.3" y2="497.1" class="st8"/><line id="line50" x1="621.9" x2="621.9" y1="756.3" y2="745.1" class="st8"/><line id="line52" x1="740.3" x2="751.5" y1="626.7" y2="626.7" class="st8"/><line id="line54" x1="492.3" x2="503.5" y1="626.7" y2="626.7" class="st8"/><line id="line56" x1="705.6" x2="713.5" y1="710.4" y2="718.3" class="st8"/><line id="line58" x1="530.3" x2="538.2" y1="535.1" y2="543" class="st8"/><line id="line60" x1="538.2" x2="530.3" y1="710.4" y2="718.3" class="st8"/><line id="line62" x1="713.5" x2="705.6" y1="535.1" y2="543" class="st8"/></g><line id="line66" x1="604.4" x2="684.5" y1="606.3" y2="687.4" class="st9"/><circle id="circle68" cx="621.9" cy="624" r="16.1" class="st10"/></g></g></svg>